<svg width="24" height="17" viewBox="0 0 24 17" fill="none" xmlns="http://www.w3.org/2000/svg">
<path fill-rule="evenodd" clip-rule="evenodd" d="M0.25 1.37028C0.25 0.871096 0.654666 0.466431 1.15385 0.466431H22.8462C23.3453 0.466431 23.75 0.871096 23.75 1.37028C23.75 1.86946 23.3453 2.27412 22.8462 2.27412H1.15385C0.654666 2.27412 0.25 1.86946 0.25 1.37028ZM0.25 8.60105C0.25 8.10186 0.654666 7.6972 1.15385 7.6972H22.8462C23.3453 7.6972 23.75 8.10186 23.75 8.60105C23.75 9.10023 23.3453 9.50489 22.8462 9.50489H1.15385C0.654666 9.50489 0.25 9.10023 0.25 8.60105ZM0.25 15.8318C0.25 15.3326 0.654666 14.928 1.15385 14.928H22.8462C23.3453 14.928 23.75 15.3326 23.75 15.8318C23.75 16.331 23.3453 16.7357 22.8462 16.7357H1.15385C0.654666 16.7357 0.25 16.331 0.25 15.8318Z" fill="#444255"/>
</svg>
