<svg width="30" height="24" viewBox="0 0 30 24" fill="none" xmlns="http://www.w3.org/2000/svg">
<path fill-rule="evenodd" clip-rule="evenodd" d="M24.2018 23.6243C24.4018 23.8241 24.6729 23.9363 24.9555 23.9363C25.2382 23.9363 25.5093 23.8241 25.7093 23.6243L28.5538 20.7799C28.6586 20.6823 28.7426 20.5645 28.8009 20.4336C28.8592 20.3028 28.8906 20.1616 28.8931 20.0183C28.8956 19.8751 28.8693 19.7329 28.8156 19.6C28.762 19.4672 28.6821 19.3466 28.5808 19.2453C28.4795 19.144 28.3589 19.0641 28.2261 19.0105C28.0933 18.9568 27.951 18.9305 27.8078 18.933C27.6646 18.9355 27.5233 18.9669 27.3925 19.0252C27.2616 19.0835 27.1439 19.1675 27.0462 19.2723L26.0222 20.2963V14.3372C26.0222 14.0543 25.9098 13.783 25.7098 13.583C25.5097 13.383 25.2384 13.2706 24.9555 13.2706C24.6726 13.2706 24.4013 13.383 24.2013 13.583C24.0013 13.783 23.8889 14.0543 23.8889 14.3372V20.2963L22.8649 19.2723C22.7672 19.1675 22.6495 19.0835 22.5186 19.0252C22.3878 18.9669 22.2465 18.9355 22.1033 18.933C21.9601 18.9305 21.8178 18.9568 21.685 19.0105C21.5522 19.0641 21.4315 19.144 21.3302 19.2453C21.229 19.3466 21.1491 19.4672 21.0955 19.6C21.0418 19.7329 21.0155 19.8751 21.018 20.0183C21.0205 20.1616 21.0519 20.3028 21.1102 20.4336C21.1685 20.5645 21.2525 20.6823 21.3573 20.7799L24.2018 23.6243Z" fill="white"/>
<path d="M12.1557 0.114807H17.8446C23.2078 0.114807 25.8901 0.114807 27.5556 1.78165C28.7559 2.98058 29.0916 4.70716 29.1854 7.58147H0.814941C0.908808 4.70716 1.24445 2.98058 2.44481 1.78165C4.11023 0.114807 6.79254 0.114807 12.1557 0.114807Z" fill="white"/>
<path fill-rule="evenodd" clip-rule="evenodd" d="M12.1557 22.8705H17.8446C18.7833 22.8705 19.638 22.8705 20.4217 22.862L19.8485 22.2888C19.4225 21.8627 19.1254 21.325 18.9914 20.7375C18.8575 20.15 18.8921 19.5366 19.0914 18.968C19.2906 18.3993 19.6464 17.8984 20.1178 17.523C20.5891 17.1476 21.1569 16.913 21.7557 16.846V14.3372C21.7557 13.4885 22.0929 12.6746 22.693 12.0744C23.2931 11.4743 24.107 11.1372 24.9557 11.1372C25.8044 11.1372 26.6184 11.4743 27.2185 12.0744C27.8186 12.6746 28.1557 13.4885 28.1557 14.3372V16.846C28.4743 16.8815 28.7886 16.964 29.0859 17.0949C29.2224 15.6414 29.2224 13.8195 29.2224 11.4927C29.2224 10.8641 29.2224 10.2725 29.2196 9.71497H0.780799C0.777954 10.2725 0.777954 10.8641 0.777954 11.4927C0.777954 16.8559 0.777954 19.5383 2.4448 21.2037C4.11022 22.8705 6.79253 22.8705 12.1557 22.8705ZM6.46684 16.115C6.18395 16.115 5.91263 16.2273 5.7126 16.4274C5.51256 16.6274 5.40018 16.8987 5.40018 17.1816C5.40018 17.4645 5.51256 17.7358 5.7126 17.9359C5.91263 18.1359 6.18395 18.2483 6.46684 18.2483H12.1557C12.4386 18.2483 12.7099 18.1359 12.91 17.9359C13.11 17.7358 13.2224 17.4645 13.2224 17.1816C13.2224 16.8987 13.11 16.6274 12.91 16.4274C12.7099 16.2273 12.4386 16.115 12.1557 16.115H6.46684ZM15.7113 16.115C15.4284 16.115 15.1571 16.2273 14.957 16.4274C14.757 16.6274 14.6446 16.8987 14.6446 17.1816C14.6446 17.4645 14.757 17.7358 14.957 17.9359C15.1571 18.1359 15.4284 18.2483 15.7113 18.2483H17.8446C18.1275 18.2483 18.3988 18.1359 18.5989 17.9359C18.7989 17.7358 18.9113 17.4645 18.9113 17.1816C18.9113 16.8987 18.7989 16.6274 18.5989 16.4274C18.3988 16.2273 18.1275 16.115 17.8446 16.115H15.7113Z" fill="white"/>
</svg>
