<svg width="27" height="36" viewBox="0 0 27 36" fill="none" xmlns="http://www.w3.org/2000/svg">
<path d="M18.1163 5.0584C19.8563 7.87677 21.5168 12.4265 21.9357 19.7066L25.1579 23.6377C25.9192 24.5904 26.3336 25.7737 26.333 26.9931V34.0777C26.333 34.3032 26.262 34.5229 26.1302 34.7058C25.9984 34.8886 25.8124 35.0254 25.5985 35.0967C25.3847 35.168 25.1538 35.1702 24.9386 35.103C24.7235 35.0357 24.5349 34.9025 24.3996 34.7222L21.983 31.5C21.6264 31.0231 21.0807 30.6407 20.3675 30.2755C19.9078 30.0435 19.4782 29.8631 19.0207 29.6697L18.5996 29.4914C17.0959 30.4108 15.27 30.8555 13.4441 30.8555C11.6181 30.8555 9.79221 30.4108 8.28851 29.4914C8.14244 29.5559 8.00281 29.6139 7.86318 29.6719C7.40992 29.8631 6.98029 30.0435 6.52058 30.2755C5.8074 30.6407 5.26177 31.0231 4.90518 31.5L2.48851 34.7222C2.35325 34.9025 2.16468 35.0357 1.9495 35.103C1.73433 35.1702 1.50346 35.168 1.2896 35.0967C1.07574 35.0254 0.889727 34.8886 0.757916 34.7058C0.626105 34.5229 0.555176 34.3032 0.555176 34.0777V26.9931C0.555153 25.7734 0.970318 24.5901 1.73236 23.6377L1.74095 23.627L4.95673 19.7066C5.37992 12.5683 7.03829 8.03358 8.76755 5.19373C9.76858 3.5461 10.7868 2.48277 11.5816 1.82114C11.9817 1.48552 12.4142 1.19049 12.8727 0.940396C13.0465 0.839596 13.2432 0.784878 13.4441 0.781433C13.661 0.781433 13.8093 0.839433 13.9811 0.918915C14.0606 0.955433 14.1658 1.00699 14.2926 1.08003C14.5461 1.2218 14.8876 1.43877 15.2872 1.75669C16.0884 2.39469 17.1131 3.4301 18.1163 5.0584ZM16.6663 13.6703C16.6663 11.2966 15.2227 9.37403 13.4441 9.37403C11.6654 9.37403 10.2218 11.2966 10.2218 13.6703C10.2218 16.044 11.6654 17.9666 13.4441 17.9666C15.2227 17.9666 16.6663 16.044 16.6663 13.6703Z" fill="white"/>
<path d="M13.446 31.9289C14.52 31.9289 15.592 31.8301 16.6231 31.6303L14.3052 34.7215C14.2052 34.8549 14.0755 34.9632 13.9263 35.0377C13.7772 35.1123 13.6127 35.1511 13.446 35.1511C13.2792 35.1511 13.1148 35.1123 12.9656 35.0377C12.8165 34.9632 12.6868 34.8549 12.5867 34.7215L10.2689 31.6303C11.3 31.8301 12.374 31.9289 13.446 31.9289Z" fill="white"/>
</svg>
