<svg width="29" height="35" viewBox="0 0 29 35" fill="none" xmlns="http://www.w3.org/2000/svg">
<path d="M16.1667 12.1703H25.639L16.1667 2.69808V12.1703ZM4.11119 0.114746H17.889L28.2223 10.4481V31.1147C28.2223 32.0283 27.8594 32.9044 27.2134 33.5503C26.5675 34.1963 25.6914 34.5592 24.7779 34.5592H4.11119C3.19767 34.5592 2.32156 34.1963 1.6756 33.5503C1.02964 32.9044 0.666748 32.0283 0.666748 31.1147V3.55919C0.666748 1.64752 2.19953 0.114746 4.11119 0.114746ZM17.889 31.1147V29.3925C17.889 27.102 13.2906 25.9481 11.0001 25.9481C8.70953 25.9481 4.11119 27.102 4.11119 29.3925V31.1147H17.889ZM11.0001 17.337C10.0866 17.337 9.21045 17.6999 8.56449 18.3458C7.91853 18.9918 7.55564 19.8679 7.55564 20.7814C7.55564 21.6949 7.91853 22.571 8.56449 23.217C9.21045 23.863 10.0866 24.2259 11.0001 24.2259C11.9136 24.2259 12.7897 23.863 13.4357 23.217C14.0816 22.571 14.4445 21.6949 14.4445 20.7814C14.4445 19.8679 14.0816 18.9918 13.4357 18.3458C12.7897 17.6999 11.9136 17.337 11.0001 17.337Z" fill="white"/>
</svg>
